<?xml version="1.0" encoding="UTF-8" standalone="no"?>
<!DOCTYPE svg PUBLIC "-//W3C//DTD SVG 1.1//EN" "http://www.w3.org/Graphics/SVG/1.1/DTD/svg11.dtd">
<svg width="100%" height="100%" viewBox="0 0 24 24" version="1.1" xmlns="http://www.w3.org/2000/svg" xmlns:xlink="http://www.w3.org/1999/xlink" xml:space="preserve" xmlns:serif="http://www.serif.com/" style="fill-rule:evenodd;clip-rule:evenodd;stroke-linecap:round;stroke-linejoin:round;stroke-miterlimit:1.5;">
    <g transform="matrix(1,0,0,1,-1081,-144)">
        <g id="_24x24-Icons" serif:id="24x24 Icons" transform="matrix(0.0778378,0,0,0.354783,719.703,-940.174)">
            <rect x="3100" y="2650" width="1850" height="1150" style="fill:none;"/>
            <g transform="matrix(4.89418,0,0,1.16061,-271.019,2949.48)">
                <path d="M1032,106.25L1032,114.75C1032,117.096 1029.94,119 1027.41,119L1015.59,119C1013.06,119 1011,117.096 1011,114.75L1011,106.25C1011,103.904 1013.06,102 1015.59,102L1027.41,102C1029.94,102 1032,103.904 1032,106.25Z" style="fill:none;stroke:#cccccc;stroke-width:5.04px;"/>
            </g>
            <g transform="matrix(4.89418,0,0,1.16061,-136.124,2949.48)">
                <path d="M1032,106.25L1032,114.75C1032,117.096 1029.94,119 1027.41,119L1015.59,119C1013.06,119 1011,117.096 1011,114.75L1011,106.25C1011,103.904 1013.06,102 1015.59,102L1027.41,102C1029.94,102 1032,103.904 1032,106.25Z" style="fill:none;stroke:#cccccc;stroke-width:5.04px;"/>
            </g>
            <g transform="matrix(4.89418,0,0,1.16061,-271.019,2976.26)">
                <path d="M1032,106.25L1032,114.75C1032,117.096 1029.94,119 1027.41,119L1015.59,119C1013.06,119 1011,117.096 1011,114.75L1011,106.25C1011,103.904 1013.06,102 1015.59,102L1027.41,102C1029.94,102 1032,103.904 1032,106.25Z" style="fill:none;stroke:#cccccc;stroke-width:5.04px;"/>
            </g>
            <g transform="matrix(4.92477,0,0,1.16061,-167.049,2976.26)">
                <path d="M1032,106.25L1032,114.75C1032,117.096 1029.95,119 1027.43,119L1015.57,119C1013.05,119 1011,117.096 1011,114.75L1011,106.25C1011,103.904 1013.05,102 1015.57,102L1027.43,102C1029.95,102 1032,103.904 1032,106.25Z" style="fill:none;stroke:#cccccc;stroke-width:5.03px;"/>
            </g>
        </g>
    </g>
</svg>
