<?xml version="1.0" encoding="UTF-8" standalone="no"?>
<!DOCTYPE svg PUBLIC "-//W3C//DTD SVG 1.1//EN" "http://www.w3.org/Graphics/SVG/1.1/DTD/svg11.dtd">
<svg width="100%" height="100%" viewBox="0 0 24 24" version="1.1" xmlns="http://www.w3.org/2000/svg" xmlns:xlink="http://www.w3.org/1999/xlink" xml:space="preserve" xmlns:serif="http://www.serif.com/" style="fill-rule:evenodd;clip-rule:evenodd;stroke-linecap:round;stroke-linejoin:round;stroke-miterlimit:1.5;">
    <g transform="matrix(1,0,0,1,-961,-120)">
        <g id="_24x24-Icons" serif:id="24x24 Icons" transform="matrix(0.0778378,0,0,0.354783,719.703,-940.174)">
            <rect x="3100" y="2650" width="1850" height="1150" style="fill:none;"/>
            <g transform="matrix(12.8472,0,0,2.81863,-9246.18,2716.24)">
                <path d="M966,102L967,112L980,106C980,106 980.895,116.551 981,117" style="fill:none;stroke:#cccccc;stroke-width:2px;"/>
            </g>
            <g transform="matrix(19.2708,0,0,4.22794,-15412.8,2572.49)">
                <circle cx="964" cy="102" r="1" style="fill:white;stroke:#cccccc;stroke-width:0.67px;"/>
            </g>
            <g transform="matrix(19.2708,0,0,4.22794,-15400,2600.67)">
                <circle cx="964" cy="102" r="1" style="fill:white;stroke:#cccccc;stroke-width:0.67px;"/>
            </g>
            <g transform="matrix(19.2708,0,0,4.22794,-15233,2583.76)">
                <circle cx="964" cy="102" r="1" style="fill:white;stroke:#cccccc;stroke-width:0.67px;"/>
            </g>
            <g transform="matrix(12.8472,0,0,2.81863,-9027.78,2755.7)">
                <circle cx="964" cy="102" r="1" style="fill:rgb(42,42,42);stroke:#cccccc;stroke-width:2px;"/>
            </g>
        </g>
    </g>
</svg>
