<?xml version="1.0" encoding="UTF-8" standalone="no"?>
<!DOCTYPE svg PUBLIC "-//W3C//DTD SVG 1.1//EN" "http://www.w3.org/Graphics/SVG/1.1/DTD/svg11.dtd">
<svg width="100%" height="100%" viewBox="0 0 24 24" version="1.1" xmlns="http://www.w3.org/2000/svg" xmlns:xlink="http://www.w3.org/1999/xlink" xml:space="preserve" xmlns:serif="http://www.serif.com/" style="fill-rule:evenodd;clip-rule:evenodd;stroke-linecap:round;stroke-linejoin:round;stroke-miterlimit:1.5;">
    <g transform="matrix(1,0,0,1,-1009,-120)">
        <g id="_24x24-Icons" serif:id="24x24 Icons" transform="matrix(0.0778378,0,0,0.354783,719.703,-940.174)">
            <rect x="3100" y="2650" width="1850" height="1150" style="fill:none;"/>
            <g transform="matrix(12.8472,0,0,2.81863,-8411.11,2755.7)">
                <circle cx="964" cy="102" r="1" style="fill:rgb(42,42,42);stroke:#cccccc;stroke-width:2px;"/>
            </g>
            <g transform="matrix(11.0119,0,0,2.81863,-7377.83,2710.6)">
                <path d="M1032,106.25L1032,114.75C1032,117.096 1029.78,119 1027.04,119L1015.96,119C1013.22,119 1011,117.096 1011,114.75L1011,106.25C1011,103.904 1013.22,102 1015.96,102L1027.04,102C1029.78,102 1032,103.904 1032,106.25Z" style="fill:none;stroke:#cccccc;stroke-width:2.15px;"/>
            </g>
            <g transform="matrix(19.2708,0,0,4.22794,-14809,2569.67)">
                <circle cx="964" cy="102" r="1" style="fill:white;stroke:#cccccc;stroke-width:0.67px;"/>
            </g>
        </g>
    </g>
</svg>
