<?xml version="1.0" encoding="UTF-8" standalone="no"?>
<!DOCTYPE svg PUBLIC "-//W3C//DTD SVG 1.1//EN" "http://www.w3.org/Graphics/SVG/1.1/DTD/svg11.dtd">
<svg width="100%" height="100%" viewBox="0 0 24 24" version="1.1" xmlns="http://www.w3.org/2000/svg" xmlns:xlink="http://www.w3.org/1999/xlink" xml:space="preserve" xmlns:serif="http://www.serif.com/" style="fill-rule:evenodd;clip-rule:evenodd;stroke-linecap:round;stroke-linejoin:round;stroke-miterlimit:1.5;">
    <g transform="matrix(1,0,0,1,-985,-144)">
        <g id="_24x24-Icons" serif:id="24x24 Icons" transform="matrix(0.0778378,0,0,0.354783,719.703,-940.174)">
            <rect x="3100" y="2650" width="1850" height="1150" style="fill:none;"/>
            <g transform="matrix(12.8472,0,0,2.81863,-9246.18,2785.29)">
                <path d="M992,100L992,117" style="fill:none;stroke:#cccccc;stroke-width:2px;"/>
            </g>
            <g transform="matrix(12.8472,0,0,2.81863,-9117.71,2785.29)">
                <path d="M992,100L992,117" style="fill:none;stroke:#cccccc;stroke-width:2px;"/>
            </g>
            <g transform="matrix(-2.22117e-15,2.81863,-12.0915,-5.17773e-16,4874.43,280.944)">
                <path d="M992,100L992,117" style="fill:none;stroke:#cccccc;stroke-width:2.06px;"/>
            </g>
            <g transform="matrix(3.84078e-15,-2.65283,12.0915,7.83528e-16,2250.57,5738.22)">
                <path d="M992,100L992,117" style="fill:none;stroke:#cccccc;stroke-width:2.12px;"/>
            </g>
        </g>
    </g>
</svg>
