<?xml version="1.0" encoding="UTF-8" standalone="no"?>
<!DOCTYPE svg PUBLIC "-//W3C//DTD SVG 1.1//EN" "http://www.w3.org/Graphics/SVG/1.1/DTD/svg11.dtd">
<svg width="100%" height="100%" viewBox="0 0 16 16" version="1.1" xmlns="http://www.w3.org/2000/svg" xmlns:xlink="http://www.w3.org/1999/xlink" xml:space="preserve" xmlns:serif="http://www.serif.com/" style="fill-rule:evenodd;clip-rule:evenodd;stroke-linecap:round;stroke-linejoin:round;stroke-miterlimit:1.5;">
    <g transform="matrix(1,0,0,1,-961,-462)">
        <g id="_16x16-Icons" serif:id="16x16 Icons" transform="matrix(0.126512,0,0,0.118519,954.674,137.852)">
            <rect x="50" y="2600" width="2150" height="1350" style="fill:none;"/>
            <clipPath id="_clip1">
                <rect x="50" y="2600" width="2150" height="1350"/>
            </clipPath>
            <g clip-path="url(#_clip1)">
                <g transform="matrix(-3.16964e-16,24.0469,-38.7883,8.66308e-14,17796.5,-19871)">
                    <path d="M946,457L951,457" style="fill:none;stroke:#cccccc;stroke-width:0.5px;"/>
                </g>
                <g transform="matrix(-3.16964e-16,24.0469,-38.7883,8.66308e-14,17882.5,-19871)">
                    <path d="M946,457L951,457" style="fill:none;stroke:#cccccc;stroke-width:0.5px;"/>
                </g>
                <g transform="matrix(22.5276,1.81079e-15,7.87823e-14,41.4043,-21254.2,-16070.7)">
                    <path d="M946,457L951,457" style="fill:none;stroke:#cccccc;stroke-width:0.5px;"/>
                </g>
                <g transform="matrix(9.48529,7.62437e-16,3.31715e-14,17.4334,-8883.57,-5165.57)">
                    <path d="M946,457L951,457" style="fill:none;stroke:#cccccc;stroke-width:1.18px;"/>
                </g>
                <g transform="matrix(22.5276,1.81079e-15,7.87823e-14,41.4043,-21254.2,-16169.9)">
                    <path d="M946,457L951,457" style="fill:none;stroke:#cccccc;stroke-width:0.5px;"/>
                </g>
            </g>
        </g>
    </g>
</svg>
