<?xml version="1.0" encoding="UTF-8" standalone="no"?>
<!DOCTYPE svg PUBLIC "-//W3C//DTD SVG 1.1//EN" "http://www.w3.org/Graphics/SVG/1.1/DTD/svg11.dtd">
<svg width="100%" height="100%" viewBox="0 0 24 24" version="1.1" xmlns="http://www.w3.org/2000/svg" xmlns:xlink="http://www.w3.org/1999/xlink" xml:space="preserve" xmlns:serif="http://www.serif.com/" style="fill-rule:evenodd;clip-rule:evenodd;stroke-linecap:round;stroke-linejoin:round;stroke-miterlimit:1.5;">
    <g transform="matrix(1,0,0,1,-1009,-336)">
        <g id="_24x24-Icons" serif:id="24x24 Icons" transform="matrix(0.0778378,0,0,0.354783,719.703,-940.174)">
            <rect x="3100" y="2650" width="1850" height="1150" style="fill:none;"/>
            <g transform="matrix(12.8472,0,0,2.81863,-8947.48,2856.27)">
                <path d="M987,275L996,269L1008,275L999,281L987,275Z" style="fill:none;stroke:#cccccc;stroke-width:2px;"/>
            </g>
            <g transform="matrix(7.13305,2.34426,10.6851,-1.56496,-5885.1,1723.1)">
                <path d="M987,275L996,269L1008,275L999,281L987,275Z" style="fill:none;stroke:#cccccc;stroke-width:2px;"/>
            </g>
            <g transform="matrix(12.8472,0,0,2.81863,-8889.67,2847.82)">
                <path d="M999,281L987,275" style="fill:none;stroke:#cccccc;stroke-width:2px;"/>
            </g>
            <g transform="matrix(12.8472,0,0,2.81863,-9024.57,2847.3)">
                <path d="M1007.5,275.182L999,281" style="fill:none;stroke:#cccccc;stroke-width:2px;"/>
            </g>
            <g transform="matrix(12.8472,0,0,2.81863,-8635.94,2800.28)">
                <path d="M1007.5,275.182L999,281L987,275" style="fill:none;stroke:#cccccc;stroke-width:2px;"/>
            </g>
        </g>
    </g>
</svg>
