<?xml version="1.0" encoding="UTF-8" standalone="no"?>
<!DOCTYPE svg PUBLIC "-//W3C//DTD SVG 1.1//EN" "http://www.w3.org/Graphics/SVG/1.1/DTD/svg11.dtd">
<svg width="100%" height="100%" viewBox="0 0 16 16" version="1.1" xmlns="http://www.w3.org/2000/svg" xmlns:xlink="http://www.w3.org/1999/xlink" xml:space="preserve" xmlns:serif="http://www.serif.com/" style="fill-rule:evenodd;clip-rule:evenodd;stroke-linecap:round;stroke-linejoin:round;stroke-miterlimit:1.5;">
    <g transform="matrix(1,0,0,1,-1041,-446)">
        <g id="_16x16-Icons" serif:id="16x16 Icons" transform="matrix(0.126512,0,0,0.118519,954.674,137.852)">
            <rect x="50" y="2600" width="2150" height="1350" style="fill:none;"/>
            <clipPath id="_clip1">
                <rect x="50" y="2600" width="2150" height="1350"/>
            </clipPath>
            <g clip-path="url(#_clip1)">
                <g transform="matrix(19.1956,-11.83,11.0826,20.4901,-22541.4,4486.32)">
                    <path d="M946,457L951,457" style="fill:none;stroke:#cccccc;stroke-width:0.71px;"/>
                </g>
                <g transform="matrix(22.5276,-13.8835,13.0063,24.0469,-26558.8,4879.34)">
                    <path d="M946,457L951,457" style="fill:none;stroke:#cccccc;stroke-width:0.61px;"/>
                </g>
                <g transform="matrix(25.2941,-15.5885,14.6036,27,-29919.7,5092.14)">
                    <path d="M946,457L951,457" style="fill:none;stroke:#cccccc;stroke-width:0.54px;"/>
                </g>
                <g transform="matrix(14.3131,-8.82097,13.066,24.1572,-18774,39.8101)">
                    <path d="M946,457L951,457" style="fill:none;stroke:#cccccc;stroke-width:0.72px;"/>
                </g>
            </g>
        </g>
    </g>
</svg>
